<?xml version="1.0" encoding="UTF-8"?>
<svg xmlns="http://www.w3.org/2000/svg" xmlns:xlink="http://www.w3.org/1999/xlink" width="35pt" height="35pt" viewBox="0 0 35 35" version="1.1">
<g id="surface1">
<path style=" stroke:none;fill-rule:nonzero;fill:rgb(0%,0%,0%);fill-opacity:1;" d="M 1.777344 5.921875 C 1.347656 6.160156 0.964844 6.363281 0.929688 6.378906 C 0.859375 6.398438 1.429688 7.292969 1.640625 7.484375 C 1.714844 7.554688 1.777344 7.636719 1.777344 7.671875 C 1.777344 7.695312 1.382812 7.726562 0.890625 7.726562 L 0 7.726562 L 0 8.320312 C 0 9.050781 0.0742188 9.34375 0.363281 9.71875 C 0.683594 10.136719 1.078125 10.316406 1.796875 10.371094 C 2.332031 10.40625 2.398438 10.425781 2.425781 10.554688 C 2.445312 10.636719 2.660156 11.785156 2.90625 13.117188 C 3.273438 15.15625 3.375 15.613281 3.554688 15.96875 C 3.984375 16.84375 4.847656 17.289062 6.117188 17.296875 L 6.460938 17.296875 L 7.109375 18.027344 C 7.882812 18.894531 8.933594 19.796875 9.882812 20.414062 L 10.582031 20.863281 L 10.625 21.210938 C 10.644531 21.410156 10.835938 23.335938 11.039062 25.5 C 11.25 27.65625 11.4375 29.46875 11.449219 29.511719 C 11.46875 29.578125 11.847656 29.601562 13.015625 29.601562 L 14.554688 29.601562 L 14.695312 28.964844 C 14.78125 28.621094 15.128906 27.054688 15.476562 25.5 C 15.976562 23.257812 16.125 22.667969 16.207031 22.6875 C 16.261719 22.710938 18.664062 22.734375 21.546875 22.75 L 26.796875 22.777344 L 27.023438 23.5 L 27.253906 24.234375 L 26.960938 26.625 C 26.796875 27.9375 26.648438 29.148438 26.625 29.3125 L 26.585938 29.601562 L 29.84375 29.601562 L 31.382812 25.0625 L 32.914062 20.523438 L 32.9375 22.15625 L 32.949219 23.789062 L 35.007812 23.789062 L 34.980469 18.195312 C 34.960938 11.941406 34.984375 12.339844 34.445312 11.238281 C 33.835938 9.992188 32.832031 9.132812 31.375 8.601562 L 30.933594 8.441406 L 21.964844 8.421875 L 12.988281 8.40625 L 12.988281 7.726562 L 12.101562 7.726562 C 11.613281 7.726562 11.210938 7.703125 11.210938 7.683594 C 11.210938 7.664062 11.328125 7.507812 11.46875 7.328125 C 11.613281 7.148438 11.8125 6.875 11.914062 6.71875 L 12.101562 6.425781 L 11.941406 6.335938 C 11.640625 6.144531 10.371094 5.46875 10.320312 5.46875 C 10.289062 5.46875 10.171875 5.625 10.046875 5.8125 C 9.550781 6.582031 8.523438 7.300781 7.554688 7.554688 C 7.027344 7.691406 5.960938 7.691406 5.433594 7.554688 C 4.464844 7.300781 3.4375 6.582031 2.9375 5.8125 C 2.816406 5.625 2.6875 5.46875 2.640625 5.476562 C 2.597656 5.476562 2.207031 5.671875 1.777344 5.921875 Z M 8.59375 9.925781 C 8.570312 10.015625 8.351562 11.191406 8.109375 12.542969 C 7.726562 14.648438 7.636719 15.023438 7.511719 15.121094 C 7.390625 15.222656 7.226562 15.242188 6.492188 15.242188 C 5.761719 15.242188 5.597656 15.222656 5.476562 15.121094 C 5.351562 15.023438 5.265625 14.648438 4.882812 12.542969 C 4.632812 11.191406 4.414062 10.015625 4.394531 9.925781 L 4.359375 9.773438 L 8.625 9.773438 Z M 10.898438 10.539062 C 10.910156 10.589844 10.953125 10.8125 10.992188 11.039062 C 11.121094 11.71875 11.632812 12.660156 12.160156 13.195312 C 12.6875 13.71875 13.03125 13.929688 13.890625 14.289062 C 14.71875 14.628906 15 14.882812 15.40625 15.648438 C 15.988281 16.726562 16.816406 17.34375 17.863281 17.484375 C 19.285156 17.679688 20.492188 17.015625 21.253906 15.632812 C 21.648438 14.902344 21.964844 14.617188 22.648438 14.347656 C 23.425781 14.046875 23.898438 13.800781 24.351562 13.4375 C 25.09375 12.84375 25.71875 11.859375 25.949219 10.917969 L 26.066406 10.460938 L 28.234375 10.460938 C 30.140625 10.460938 30.441406 10.472656 30.773438 10.582031 C 31.855469 10.9375 32.628906 11.777344 32.847656 12.832031 C 33.046875 13.773438 33.105469 13.5625 31.132812 19.398438 C 30.132812 22.359375 29.296875 24.792969 29.277344 24.8125 C 29.265625 24.835938 29.273438 24.664062 29.292969 24.429688 C 29.339844 24.027344 29.304688 23.914062 28.164062 20.296875 C 27.523438 18.25 26.96875 16.554688 26.945312 16.535156 C 26.898438 16.496094 25.121094 17.035156 25.046875 17.109375 C 25.027344 17.132812 25.257812 17.921875 25.558594 18.882812 C 25.867188 19.835938 26.113281 20.644531 26.113281 20.671875 C 26.113281 20.699219 23.953125 20.710938 21.3125 20.691406 C 16.796875 20.664062 16.453125 20.65625 15.625 20.515625 C 15.140625 20.4375 14.695312 20.371094 14.628906 20.371094 C 14.53125 20.371094 14.410156 20.851562 13.875 23.242188 C 13.523438 24.820312 13.214844 26.085938 13.1875 26.058594 C 13.164062 26.03125 13.015625 24.65625 12.859375 23.003906 C 12.703125 21.347656 12.550781 19.898438 12.53125 19.777344 C 12.503906 19.578125 12.429688 19.515625 11.902344 19.234375 C 11.019531 18.757812 10.117188 18.109375 9.398438 17.425781 L 8.757812 16.808594 L 9.039062 16.53125 C 9.515625 16.050781 9.609375 15.734375 10.089844 13.070312 C 10.335938 11.730469 10.546875 10.589844 10.5625 10.539062 C 10.574219 10.5 10.65625 10.460938 10.734375 10.460938 C 10.808594 10.460938 10.882812 10.5 10.898438 10.539062 Z M 10.898438 10.539062 "/>
<path style=" stroke:none;fill-rule:nonzero;fill:rgb(0%,0%,0%);fill-opacity:1;" d="M 28.199219 12.421875 C 27.0625 13.015625 27.214844 14.621094 28.429688 14.945312 C 29.734375 15.277344 30.695312 13.699219 29.785156 12.726562 C 29.40625 12.324219 28.648438 12.179688 28.199219 12.421875 Z M 28.199219 12.421875 "/>
</g>
</svg>
